<svg width="275" height="216" viewBox="0 0 275 216" fill="none" xmlns="http://www.w3.org/2000/svg">
<path opacity="0.08" d="M135.032 186.944L135.838 187.536L135.842 187.531L135.032 186.944ZM19.832 186.944L19.0225 187.531L19.0261 187.536L19.832 186.944ZM19.832 28.544L19.0261 27.9519L19.0225 27.9569L19.832 28.544ZM135.032 28.544L135.842 27.9569L135.838 27.9519L135.032 28.544ZM56.408 163.04L55.592 163.618L55.5957 163.623L56.408 163.04ZM98.456 163.04L99.2683 163.623L99.272 163.618L98.456 163.04ZM98.456 52.448L97.6338 53.0172L97.64 53.026L98.456 52.448ZM56.408 52.448L57.2296 53.0181L57.2302 53.0172L56.408 52.448ZM134.226 186.352C120.602 204.896 101.709 214.168 77.432 214.168V216.168C102.307 216.168 121.814 206.624 135.838 187.536L134.226 186.352ZM77.432 214.168C53.1546 214.168 34.2621 204.896 20.6379 186.352L19.0261 187.536C33.0499 206.624 52.5574 216.168 77.432 216.168V214.168ZM20.6415 186.357C8.14987 169.134 1.824 142.984 1.824 107.744H-0.176C-0.176 143.16 6.17014 169.81 19.0225 187.531L20.6415 186.357ZM1.824 107.744C1.824 72.5042 8.14987 46.3544 20.6415 29.1311L19.0225 27.9569C6.17014 45.6776 -0.176 72.3278 -0.176 107.744H1.824ZM20.6379 29.1361C34.2621 10.5919 53.1546 1.32 77.432 1.32V-0.680004C52.5574 -0.680004 33.0499 8.86405 19.0261 27.9519L20.6379 29.1361ZM77.432 1.32C101.709 1.32 120.602 10.5919 134.226 29.1361L135.838 27.9519C121.814 8.86405 102.307 -0.680004 77.432 -0.680004V1.32ZM134.222 29.1311C146.714 46.3544 153.04 72.5042 153.04 107.744H155.04C155.04 72.3278 148.694 45.6776 135.842 27.9569L134.222 29.1311ZM153.04 107.744C153.04 142.984 146.714 169.134 134.222 186.357L135.842 187.531C148.694 169.81 155.04 143.16 155.04 107.744H153.04ZM55.5957 163.623C61.1448 171.352 68.4454 175.272 77.432 175.272V173.272C69.1386 173.272 62.4232 169.704 57.2203 162.457L55.5957 163.623ZM77.432 175.272C86.4186 175.272 93.7192 171.352 99.2683 163.623L97.6437 162.457C92.4408 169.704 85.7254 173.272 77.432 173.272V175.272ZM99.272 163.618C102.66 158.835 105.142 151.73 106.785 142.405C108.43 133.064 109.248 121.409 109.248 107.456H107.248C107.248 121.343 106.434 132.872 104.815 142.059C103.194 151.262 100.78 158.029 97.64 162.462L99.272 163.618ZM109.248 107.456C109.248 93.6941 108.43 82.1828 106.785 72.9367C105.141 63.7063 102.659 56.6517 99.272 51.87L97.64 53.026C100.781 57.4603 103.195 64.1816 104.815 73.2872C106.434 82.3772 107.248 93.7619 107.248 107.456H109.248ZM99.2782 51.8788C93.9144 44.131 86.6042 40.216 77.432 40.216V42.216C85.9238 42.216 92.6297 45.789 97.6338 53.0172L99.2782 51.8788ZM77.432 40.216C68.2598 40.216 60.9496 44.131 55.5858 51.8788L57.2302 53.0172C62.2344 45.789 68.9402 42.216 77.432 42.216V40.216ZM55.5864 51.8779C52.2035 56.7533 49.7221 63.9005 48.0792 73.2265C46.4336 82.5676 45.616 94.1742 45.616 108.032H47.616C47.616 94.2418 48.4304 82.7604 50.0488 73.5735C51.6699 64.3715 54.0845 57.5507 57.2296 53.0181L55.5864 51.8779ZM45.616 108.032C45.616 121.794 46.4336 133.305 48.0795 142.551C49.7226 151.782 52.2049 158.836 55.592 163.618L57.224 162.462C54.0831 158.028 51.6694 151.306 50.0485 142.201C48.4304 133.111 47.616 121.726 47.616 108.032H45.616ZM228.9 212H227.9V213H228.9V212ZM228.9 58.496H229.9V57.0724L228.561 57.5553L228.9 58.496ZM186.564 73.76H185.564V75.1835L186.903 74.7007L186.564 73.76ZM186.564 32.288L186.223 31.3479L185.564 31.587V32.288H186.564ZM274.692 0.319996H275.692V-1.10651L274.351 -0.620067L274.692 0.319996ZM274.692 212V213H275.692V212H274.692ZM229.9 212V58.496H227.9V212H229.9ZM228.561 57.5553L186.225 72.8193L186.903 74.7007L229.239 59.4367L228.561 57.5553ZM187.564 73.76V32.288H185.564V73.76H187.564ZM186.905 33.2281L275.033 1.26006L274.351 -0.620067L186.223 31.3479L186.905 33.2281ZM273.692 0.319996V212H275.692V0.319996H273.692ZM274.692 211H228.9V213H274.692V211Z" fill="#191B21"/>
</svg>
