<svg width="322" height="216" viewBox="0 0 322 216" fill="none" xmlns="http://www.w3.org/2000/svg">
<path opacity="0.08" d="M135.032 186.943L135.838 187.535L135.841 187.53L135.032 186.943ZM19.8319 186.943L19.0224 187.53L19.0261 187.535L19.8319 186.943ZM19.8319 28.543L19.026 27.9509L19.0224 27.9559L19.8319 28.543ZM135.032 28.543L135.841 27.9559L135.838 27.9509L135.032 28.543ZM56.4079 163.039L55.5919 163.617L55.5956 163.622L56.4079 163.039ZM98.4559 163.039L99.2683 163.622L99.272 163.617L98.4559 163.039ZM98.4559 52.447L97.6337 53.0163L97.6399 53.025L98.4559 52.447ZM56.4079 52.447L57.2295 53.0171L57.2301 53.0162L56.4079 52.447ZM134.226 186.351C120.602 204.895 101.709 214.167 77.4319 214.167V216.167C102.307 216.167 121.814 206.623 135.838 187.535L134.226 186.351ZM77.4319 214.167C53.1545 214.167 34.2621 204.895 20.6378 186.351L19.0261 187.535C33.0498 206.623 52.5573 216.167 77.4319 216.167V214.167ZM20.6414 186.356C8.14981 169.133 1.82394 142.983 1.82394 107.743H-0.176061C-0.176061 143.159 6.17007 169.809 19.0224 187.53L20.6414 186.356ZM1.82394 107.743C1.82394 72.5032 8.14981 46.3535 20.6414 29.1301L19.0224 27.9559C6.17007 45.6766 -0.176061 72.3268 -0.176061 107.743H1.82394ZM20.6378 29.1351C34.2621 10.591 53.1545 1.31902 77.4319 1.31902V-0.680981C52.5573 -0.680981 33.0498 8.86307 19.0261 27.9509L20.6378 29.1351ZM77.4319 1.31902C101.709 1.31902 120.602 10.591 134.226 29.1351L135.838 27.9509C121.814 8.86307 102.307 -0.680981 77.4319 -0.680981V1.31902ZM134.222 29.1301C146.714 46.3535 153.04 72.5032 153.04 107.743H155.04C155.04 72.3268 148.694 45.6766 135.841 27.9559L134.222 29.1301ZM153.04 107.743C153.04 142.983 146.714 169.133 134.222 186.356L135.841 187.53C148.694 169.809 155.04 143.159 155.04 107.743H153.04ZM55.5956 163.622C61.1447 171.351 68.4454 175.271 77.4319 175.271V173.271C69.1385 173.271 62.4232 169.703 57.2203 162.456L55.5956 163.622ZM77.4319 175.271C86.4185 175.271 93.7192 171.351 99.2683 163.622L97.6436 162.456C92.4407 169.703 85.7254 173.271 77.4319 173.271V175.271ZM99.272 163.617C102.66 158.834 105.142 151.729 106.785 142.405C108.43 133.063 109.248 121.408 109.248 107.455H107.248C107.248 121.342 106.433 132.871 104.815 142.058C103.194 151.261 100.78 158.028 97.6399 162.461L99.272 163.617ZM109.248 107.455C109.248 93.6931 108.43 82.1818 106.784 72.9358C105.141 63.7054 102.659 56.6507 99.272 51.869L97.6399 53.025C100.781 57.4593 103.195 64.1807 104.815 73.2863C106.434 82.3763 107.248 93.761 107.248 107.455H109.248ZM99.2781 51.8778C93.9143 44.13 86.6041 40.215 77.4319 40.215V42.215C85.9238 42.215 92.6296 45.788 97.6338 53.0162L99.2781 51.8778ZM77.4319 40.215C68.2598 40.215 60.9496 44.13 55.5857 51.8778L57.2301 53.0162C62.2343 45.788 68.9401 42.215 77.4319 42.215V40.215ZM55.5864 51.8769C52.2034 56.7523 49.722 63.8995 48.0791 73.2255C46.4335 82.5666 45.6159 94.1732 45.6159 108.031H47.6159C47.6159 94.2408 48.4304 82.7594 50.0488 73.5725C51.6699 64.3706 54.0844 57.5497 57.2295 53.0171L55.5864 51.8769ZM45.6159 108.031C45.6159 121.793 46.4335 133.304 48.0794 142.55C49.7225 151.781 52.2048 158.835 55.5919 163.617L57.224 162.461C54.083 158.027 51.6694 151.305 50.0485 142.2C48.4304 133.11 47.6159 121.725 47.6159 108.031H45.6159ZM172.74 211.423L171.942 210.82L171.568 211.315L171.845 211.87L172.74 211.423ZM236.388 127.327L237.185 127.931L237.188 127.927L236.388 127.327ZM260.58 91.903L261.453 92.3904L260.58 91.903ZM258.852 48.415L258.199 49.1724L258.205 49.1779L258.212 49.1832L258.852 48.415ZM187.716 59.935H186.716V61.9733L188.328 60.7259L187.716 59.935ZM187.716 17.023L187.133 16.21L186.716 16.5091V17.023H187.716ZM292.836 18.175L292.183 18.9328L292.189 18.9376L292.194 18.9424L292.836 18.175ZM305.796 98.527L304.889 98.1041L304.886 98.1109L305.796 98.527ZM281.028 138.271L281.825 138.874L281.829 138.869L281.028 138.271ZM255.972 171.391L255.174 170.788L254.8 171.283L255.077 171.838L255.972 171.391ZM256.26 171.967L255.365 172.414L255.642 172.967H256.26V171.967ZM321.348 171.967H322.348V170.967H321.348V171.967ZM321.348 211.999V212.999H322.348V211.999H321.348ZM173.028 211.999L172.133 212.446L172.41 212.999H173.028V211.999ZM173.537 212.027L237.185 127.931L235.59 126.724L171.942 210.82L173.537 212.027ZM237.188 127.927C248.713 112.56 256.811 100.708 261.453 92.3904L259.707 91.4156C255.133 99.6103 247.102 111.374 235.588 126.727L237.188 127.927ZM261.453 92.3904C266.12 84.0283 268.492 76.0848 268.492 68.575H266.492C266.492 75.6572 264.255 83.2657 259.707 91.4156L261.453 92.3904ZM268.492 68.575C268.492 59.6887 265.516 52.6669 259.492 47.6468L258.212 49.1832C263.707 53.7631 266.492 60.1813 266.492 68.575H268.492ZM259.505 47.6576C253.709 42.6614 245.967 40.215 236.388 40.215V42.215C245.625 42.215 252.858 44.5686 258.199 49.1724L259.505 47.6576ZM236.388 40.215C219.796 40.215 203.362 46.563 187.104 59.1442L188.328 60.7259C204.325 48.347 220.34 42.215 236.388 42.215V40.215ZM188.716 59.935V17.023H186.716V59.935H188.716ZM188.298 17.8361C203.674 6.82597 221.133 1.31902 240.708 1.31902V-0.680981C220.73 -0.680981 202.861 4.94806 187.133 16.21L188.298 17.8361ZM240.708 1.31902C261.434 1.31902 278.567 7.20786 292.183 18.9328L293.488 17.4172C279.456 5.33417 261.838 -0.680981 240.708 -0.680981V1.31902ZM292.194 18.9424C305.97 30.4535 312.86 45.6219 312.86 64.543H314.86C314.86 45.0641 307.733 29.3205 293.477 17.4077L292.194 18.9424ZM312.86 64.543C312.86 75.5135 310.212 86.6978 304.89 98.1041L306.702 98.9499C312.131 87.3162 314.86 75.8445 314.86 64.543H312.86ZM304.886 98.1109C299.743 109.35 291.532 122.535 280.226 137.673L281.829 138.869C293.18 123.671 301.481 110.36 306.705 98.9431L304.886 98.1109ZM280.23 137.668L255.174 170.788L256.769 171.994L281.825 138.874L280.23 137.668ZM255.077 171.838L255.365 172.414L257.154 171.52L256.866 170.944L255.077 171.838ZM256.26 172.967H321.348V170.967H256.26V172.967ZM320.348 171.967V211.999H322.348V171.967H320.348ZM321.348 210.999H173.028V212.999H321.348V210.999ZM173.922 211.552L173.634 210.976L171.845 211.87L172.133 212.446L173.922 211.552Z" fill="#191B21"/>
</svg>
