<svg width="318" height="216" viewBox="0 0 318 216" fill="none" xmlns="http://www.w3.org/2000/svg">
<path opacity="0.08" d="M135.032 186.944L135.838 187.536L135.842 187.531L135.032 186.944ZM19.832 186.944L19.0225 187.531L19.0261 187.536L19.832 186.944ZM19.832 28.544L19.0261 27.9519L19.0225 27.9569L19.832 28.544ZM135.032 28.544L135.842 27.9569L135.838 27.9519L135.032 28.544ZM56.408 163.04L55.592 163.618L55.5957 163.623L56.408 163.04ZM98.456 163.04L99.2683 163.623L99.272 163.618L98.456 163.04ZM98.456 52.448L97.6338 53.0172L97.64 53.026L98.456 52.448ZM56.408 52.448L57.2296 53.0181L57.2302 53.0172L56.408 52.448ZM134.226 186.352C120.602 204.896 101.709 214.168 77.432 214.168V216.168C102.307 216.168 121.814 206.624 135.838 187.536L134.226 186.352ZM77.432 214.168C53.1546 214.168 34.2621 204.896 20.6379 186.352L19.0261 187.536C33.0499 206.624 52.5574 216.168 77.432 216.168V214.168ZM20.6415 186.357C8.14987 169.134 1.824 142.984 1.824 107.744H-0.176C-0.176 143.16 6.17014 169.81 19.0225 187.531L20.6415 186.357ZM1.824 107.744C1.824 72.5042 8.14987 46.3544 20.6415 29.1311L19.0225 27.9569C6.17014 45.6776 -0.176 72.3278 -0.176 107.744H1.824ZM20.6379 29.1361C34.2621 10.5919 53.1546 1.32 77.432 1.32V-0.680004C52.5574 -0.680004 33.0499 8.86405 19.0261 27.9519L20.6379 29.1361ZM77.432 1.32C101.709 1.32 120.602 10.5919 134.226 29.1361L135.838 27.9519C121.814 8.86405 102.307 -0.680004 77.432 -0.680004V1.32ZM134.222 29.1311C146.714 46.3544 153.04 72.5042 153.04 107.744H155.04C155.04 72.3278 148.694 45.6776 135.842 27.9569L134.222 29.1311ZM153.04 107.744C153.04 142.984 146.714 169.134 134.222 186.357L135.842 187.531C148.694 169.81 155.04 143.16 155.04 107.744H153.04ZM55.5957 163.623C61.1448 171.352 68.4454 175.272 77.432 175.272V173.272C69.1386 173.272 62.4232 169.704 57.2203 162.457L55.5957 163.623ZM77.432 175.272C86.4186 175.272 93.7192 171.352 99.2683 163.623L97.6437 162.457C92.4408 169.704 85.7254 173.272 77.432 173.272V175.272ZM99.272 163.618C102.66 158.835 105.142 151.73 106.785 142.405C108.43 133.064 109.248 121.409 109.248 107.456H107.248C107.248 121.343 106.434 132.872 104.815 142.059C103.194 151.262 100.78 158.029 97.64 162.462L99.272 163.618ZM109.248 107.456C109.248 93.6941 108.43 82.1828 106.785 72.9367C105.141 63.7063 102.659 56.6517 99.272 51.87L97.64 53.026C100.781 57.4603 103.195 64.1816 104.815 73.2872C106.434 82.3772 107.248 93.7619 107.248 107.456H109.248ZM99.2782 51.8788C93.9144 44.131 86.6042 40.216 77.432 40.216V42.216C85.9238 42.216 92.6297 45.789 97.6338 53.0172L99.2782 51.8788ZM77.432 40.216C68.2598 40.216 60.9496 44.131 55.5858 51.8788L57.2302 53.0172C62.2344 45.789 68.9402 42.216 77.432 42.216V40.216ZM55.5864 51.8779C52.2035 56.7533 49.7221 63.9005 48.0792 73.2265C46.4336 82.5676 45.616 94.1742 45.616 108.032H47.616C47.616 94.2418 48.4304 82.7604 50.0488 73.5735C51.6699 64.3715 54.0845 57.5507 57.2296 53.0181L55.5864 51.8779ZM45.616 108.032C45.616 121.794 46.4336 133.305 48.0795 142.551C49.7226 151.782 52.2049 158.836 55.592 163.618L57.224 162.462C54.0831 158.028 51.6694 151.306 50.0485 142.201C48.4304 133.111 47.616 121.726 47.616 108.032H45.616ZM181.668 199.04H180.668V199.568L181.104 199.866L181.668 199.04ZM181.668 154.976L182.189 154.123L180.668 153.194V154.976H181.668ZM263.172 168.224L262.576 167.421L262.57 167.426L262.563 167.43L263.172 168.224ZM215.364 125.312H214.364V126.312H215.364V125.312ZM215.364 90.752V89.752H214.364V90.752H215.364ZM259.716 84.128L260.337 84.9115L260.345 84.905L260.353 84.8984L259.716 84.128ZM259.428 47.264L258.806 48.0475L258.813 48.0526L258.819 48.0576L259.428 47.264ZM194.052 52.736H193.052V54.4205L194.531 53.6139L194.052 52.736ZM194.052 11.84L193.533 10.9848L193.052 11.2767V11.84H194.052ZM292.836 17.024L292.208 17.8027L292.214 17.8075L292.22 17.8122L292.836 17.024ZM305.508 85.856L306.331 86.4242L306.337 86.4151L305.508 85.856ZM283.044 103.424L282.682 102.492L282.044 102.739V103.424H283.044ZM283.044 104H282.044V104.717L282.723 104.947L283.044 104ZM308.964 123.296L308.129 123.847L308.134 123.855L308.964 123.296ZM296.004 197.888L295.384 197.103L296.004 197.888ZM182.668 199.04V154.976H180.668V199.04H182.668ZM181.147 155.829C202.926 169.128 222.405 175.848 239.556 175.848V173.848C222.914 173.848 203.802 167.32 182.189 154.123L181.147 155.829ZM239.556 175.848C249.678 175.848 257.79 173.61 263.78 169.018L262.563 167.43C257.033 171.67 249.401 173.848 239.556 173.848V175.848ZM263.768 169.027C269.992 164.409 273.1 157.958 273.1 149.792H271.1C271.1 157.37 268.256 163.207 262.576 167.421L263.768 169.027ZM273.1 149.792C273.1 141.349 269.973 134.897 263.662 130.605C257.42 126.36 248.182 124.312 236.1 124.312V126.312C248.018 126.312 256.78 128.344 262.537 132.259C268.226 136.127 271.1 141.915 271.1 149.792H273.1ZM236.1 124.312H215.364V126.312H236.1V124.312ZM216.364 125.312V90.752H214.364V125.312H216.364ZM215.364 91.752H234.948V89.752H215.364V91.752ZM234.948 91.752C246.002 91.752 254.519 89.5256 260.337 84.9115L259.094 83.3445C253.776 87.5624 245.781 89.752 234.948 89.752V91.752ZM260.353 84.8984C266.167 80.0872 269.068 73.6526 269.068 65.696H267.068C267.068 73.0994 264.401 78.9528 259.078 83.3576L260.353 84.8984ZM269.068 65.696C269.068 57.5433 266.066 51.0934 260.036 46.4704L258.819 48.0576C264.309 52.2666 267.068 58.1047 267.068 65.696H269.068ZM260.049 46.4805C254.254 41.8847 246.524 39.64 236.964 39.64V41.64C246.219 41.64 253.465 43.8113 258.806 48.0475L260.049 46.4805ZM236.964 39.64C222.94 39.64 208.472 43.7313 193.573 51.8581L194.531 53.6139C209.199 45.6127 223.34 41.64 236.964 41.64V39.64ZM195.052 52.736V11.84H193.052V52.736H195.052ZM194.57 12.6952C207.053 5.12958 222.32 1.32 240.42 1.32V-0.680004C222.039 -0.680004 206.394 3.1904 193.533 10.9848L194.57 12.6952ZM240.42 1.32C261.357 1.32 278.594 6.83584 292.208 17.8027L293.463 16.2452C279.429 4.94014 261.723 -0.680004 240.42 -0.680004V1.32ZM292.22 17.8122C306.015 28.5835 312.86 42.0302 312.86 58.208H314.86C314.86 41.3618 307.688 27.3525 293.451 16.2358L292.22 17.8122ZM312.86 58.208C312.86 68.1894 310.133 77.2098 304.679 85.2969L306.337 86.4151C312.019 77.9901 314.86 68.5786 314.86 58.208H312.86ZM304.685 85.2878C299.234 93.1818 291.909 98.9138 282.682 102.492L283.405 104.356C292.994 100.638 300.645 94.6582 306.331 86.4242L304.685 85.2878ZM282.044 103.424V104H284.044V103.424H282.044ZM282.723 104.947C293.864 108.724 302.312 115.028 308.129 123.847L309.799 122.745C303.711 113.516 294.88 106.956 283.365 103.053L282.723 104.947ZM308.134 123.855C313.97 132.514 316.892 142.302 316.892 153.248H318.892C318.892 141.922 315.862 131.742 309.793 122.737L308.134 123.855ZM316.892 153.248C316.892 171.175 309.741 185.768 295.384 197.103L296.623 198.673C311.45 186.967 318.892 171.801 318.892 153.248H316.892ZM295.384 197.103C280.996 208.463 263.176 214.168 241.86 214.168V216.168C263.552 216.168 281.828 210.353 296.623 198.673L295.384 197.103ZM241.86 214.168C217.621 214.168 197.769 208.825 182.232 198.214L181.104 199.866C197.055 210.759 217.33 216.168 241.86 216.168V214.168Z" fill="#191B21"/>
</svg>
